<svg width="44" height="62" viewBox="0 0 44 62" fill="none" xmlns="http://www.w3.org/2000/svg">
<g id="Group">
<path id="Vector" d="M9.3 24.7998C8.88891 24.7998 8.49467 24.9631 8.20398 25.2538C7.9133 25.5445 7.75 25.9387 7.75 26.3498C7.75 26.7609 7.9133 27.1551 8.20398 27.4458C8.49467 27.7365 8.88891 27.8998 9.3 27.8998H20.15C20.5611 27.8998 20.9553 27.7365 21.246 27.4458C21.5367 27.1551 21.7 26.7609 21.7 26.3498C21.7 25.9387 21.5367 25.5445 21.246 25.2538C20.9553 24.9631 20.5611 24.7998 20.15 24.7998H9.3ZM7.75 18.5998C7.75 18.1887 7.9133 17.7945 8.20398 17.5038C8.49467 17.2131 8.88891 17.0498 9.3 17.0498H33.325C33.7361 17.0498 34.1303 17.2131 34.421 17.5038C34.7117 17.7945 34.875 18.1887 34.875 18.5998C34.875 19.0109 34.7117 19.4051 34.421 19.6958C34.1303 19.9865 33.7361 20.1498 33.325 20.1498H9.3C8.88891 20.1498 8.49467 19.9865 8.20398 19.6958C7.9133 19.4051 7.75 19.0109 7.75 18.5998Z" fill="white"/>
<path id="Vector_2" fill-rule="evenodd" clip-rule="evenodd" d="M7.75 37.1998C7.75 36.7887 7.9133 36.3945 8.20398 36.1038C8.49467 35.8131 8.88891 35.6498 9.3 35.6498H15.5C15.9111 35.6498 16.3053 35.8131 16.596 36.1038C16.8867 36.3945 17.05 36.7887 17.05 37.1998V43.3998C17.05 43.8109 16.8867 44.2051 16.596 44.4958C16.3053 44.7865 15.9111 44.9498 15.5 44.9498H9.3C8.88891 44.9498 8.49467 44.7865 8.20398 44.4958C7.9133 44.2051 7.75 43.8109 7.75 43.3998V37.1998ZM10.85 41.8498V38.7498H13.95V41.8498H10.85ZM27.9 41.8498C29.1333 41.8498 30.316 41.3599 31.188 40.4879C32.0601 39.6158 32.55 38.4331 32.55 37.1998C32.55 35.9665 32.0601 34.7838 31.188 33.9118C30.316 33.0397 29.1333 32.5498 27.9 32.5498C26.6667 32.5498 25.484 33.0397 24.612 33.9118C23.7399 34.7838 23.25 35.9665 23.25 37.1998C23.25 38.4331 23.7399 39.6158 24.612 40.4879C25.484 41.3599 26.6667 41.8498 27.9 41.8498ZM27.9 38.7498C28.1092 38.7594 28.3181 38.7265 28.5142 38.6531C28.7103 38.5797 28.8895 38.4673 29.041 38.3227C29.1924 38.1782 29.313 38.0044 29.3955 37.812C29.478 37.6195 29.5206 37.4124 29.5208 37.203C29.521 36.9936 29.4788 36.7863 29.3967 36.5937C29.3146 36.4011 29.1944 36.2271 29.0432 36.0823C28.892 35.9374 28.713 35.8247 28.5171 35.7509C28.3211 35.6771 28.1123 35.6438 27.9031 35.6529C27.5044 35.6703 27.1278 35.8409 26.8517 36.1291C26.5756 36.4172 26.4212 36.8008 26.4208 37.1999C26.4204 37.599 26.574 37.9828 26.8495 38.2715C27.125 38.5603 27.5013 38.7316 27.9 38.7498ZM18.6 48.3319C18.6 45.0521 24.7954 43.3998 27.9 43.3998C31.0047 43.3998 37.2 45.0521 37.2 48.3319V54.2498H18.6V48.3319ZM21.7853 48.3939C21.7556 48.4221 21.7271 48.4516 21.7 48.4823V51.1498H34.1V48.4838C34.0729 48.4521 34.0445 48.4216 34.0148 48.3924C33.7606 48.1444 33.2708 47.8158 32.502 47.4887C30.952 46.83 29.0393 46.4998 27.9 46.4998C26.7608 46.4998 24.8481 46.83 23.2981 47.4887C22.5293 47.8142 22.0395 48.1459 21.7853 48.3939Z" fill="white"/>
<path id="Vector_3" fill-rule="evenodd" clip-rule="evenodd" d="M10.85 4.65C10.85 3.41674 11.3399 2.234 12.212 1.36195C13.084 0.489909 14.2667 0 15.5 0H27.9C29.1333 0 30.316 0.489909 31.188 1.36195C32.0601 2.234 32.55 3.41674 32.55 4.65H38.75C39.9833 4.65 41.166 5.13991 42.038 6.01195C42.9101 6.884 43.4 8.06674 43.4 9.3V57.35C43.4 58.5833 42.9101 59.766 42.038 60.638C41.166 61.5101 39.9833 62 38.75 62H4.65C3.41674 62 2.234 61.5101 1.36195 60.638C0.489909 59.766 0 58.5833 0 57.35V9.3C0 8.06674 0.489909 6.884 1.36195 6.01195C2.234 5.13991 3.41674 4.65 4.65 4.65H10.85ZM27.9 12.4C29.1333 12.4 30.316 11.9101 31.188 11.038C32.0601 10.166 32.55 8.98326 32.55 7.75H38.75C39.1611 7.75 39.5553 7.9133 39.846 8.20398C40.1367 8.49467 40.3 8.88891 40.3 9.3V57.35C40.3 57.7611 40.1367 58.1553 39.846 58.446C39.5553 58.7367 39.1611 58.9 38.75 58.9H4.65C4.23891 58.9 3.84467 58.7367 3.55398 58.446C3.2633 58.1553 3.1 57.7611 3.1 57.35V9.3C3.1 8.88891 3.2633 8.49467 3.55398 8.20398C3.84467 7.9133 4.23891 7.75 4.65 7.75H10.85C10.85 8.98326 11.3399 10.166 12.212 11.038C13.084 11.9101 14.2667 12.4 15.5 12.4H27.9ZM15.5 3.1C15.0889 3.1 14.6947 3.2633 14.404 3.55398C14.1133 3.84467 13.95 4.23891 13.95 4.65V7.75C13.95 8.16109 14.1133 8.55533 14.404 8.84601C14.6947 9.1367 15.0889 9.3 15.5 9.3H27.9C28.3111 9.3 28.7053 9.1367 28.996 8.84601C29.2867 8.55533 29.45 8.16109 29.45 7.75V4.65C29.45 4.23891 29.2867 3.84467 28.996 3.55398C28.7053 3.2633 28.3111 3.1 27.9 3.1H15.5Z" fill="white"/>
</g>
</svg>
