<svg width="62" height="62" viewBox="0 0 62 62" fill="none" xmlns="http://www.w3.org/2000/svg">
<g id="Group">
<path id="Vector" fill-rule="evenodd" clip-rule="evenodd" d="M50.8056 6.88889C50.8056 8.71594 50.0798 10.4682 48.7878 11.7601C47.4959 13.052 45.7437 13.7778 43.9167 13.7778C42.0896 13.7778 40.3374 13.052 39.0455 11.7601C37.7536 10.4682 37.0278 8.71594 37.0278 6.88889C37.0278 5.06184 37.7536 3.30963 39.0455 2.01771C40.3374 0.725791 42.0896 0 43.9167 0C45.7437 0 47.4959 0.725791 48.7878 2.01771C50.0798 3.30963 50.8056 5.06184 50.8056 6.88889ZM47.3611 6.88889C47.3611 7.80241 46.9982 8.67852 46.3523 9.32448C45.7063 9.97044 44.8302 10.3333 43.9167 10.3333C43.0031 10.3333 42.127 9.97044 41.4811 9.32448C40.8351 8.67852 40.4722 7.80241 40.4722 6.88889C40.4722 5.97537 40.8351 5.09926 41.4811 4.4533C42.127 3.80734 43.0031 3.44444 43.9167 3.44444C44.8302 3.44444 45.7063 3.80734 46.3523 4.4533C46.9982 5.09926 47.3611 5.97537 47.3611 6.88889ZM8.61111 37.8889C8.61111 36.9754 8.97401 36.0993 9.61997 35.4533C10.2659 34.8073 11.142 34.4444 12.0556 34.4444H17.2222C18.1357 34.4444 19.0119 34.8073 19.6578 35.4533C20.3038 36.0993 20.6667 36.9754 20.6667 37.8889V41.3333H25.8333C26.7469 41.3333 27.623 41.6962 28.2689 42.3422C28.9149 42.9881 29.2778 43.8643 29.2778 44.7778V58.5556C29.2778 59.4691 28.9149 60.3452 28.2689 60.9911C27.623 61.6371 26.7469 62 25.8333 62H3.44444C2.53092 62 1.65481 61.6371 1.00885 60.9911C0.362896 60.3452 0 59.4691 0 58.5556V44.7778C0 43.8643 0.362896 42.9881 1.00885 42.3422C1.65481 41.6962 2.53092 41.3333 3.44444 41.3333H8.61111V37.8889ZM3.44444 58.5556V44.7778H6.88889V58.5556H3.44444ZM17.2222 37.8889V41.3333H12.0556V37.8889H17.2222ZM18.9444 44.7778H10.3333V58.5556H18.9444V44.7778ZM22.3889 44.7778V58.5556H25.8333V44.7778H22.3889Z" fill="white"/>
<path id="Vector_2" d="M55.1109 27.5553C55.1109 26.6418 54.7481 25.7657 54.1021 25.1197C53.4561 24.4737 52.58 24.1108 51.6665 24.1108V30.9997C52.58 30.9997 53.4561 30.6368 54.1021 29.9909C54.7481 29.3449 55.1109 28.4688 55.1109 27.5553Z" fill="white"/>
<path id="Vector_3" fill-rule="evenodd" clip-rule="evenodd" d="M37.8888 61.9999C36.5185 61.9999 35.2043 61.4556 34.2354 60.4867C33.2665 59.5177 32.7221 58.2036 32.7221 56.8333V27.5555H24.111C22.7407 27.5555 21.4266 27.0112 20.4576 26.0422C19.4887 25.0733 18.9443 23.7591 18.9443 22.3888C18.9443 21.0185 19.4887 19.7044 20.4576 18.7354C21.4266 17.7665 22.7407 17.2222 24.111 17.2222H53.4163C55.3332 17.2222 61.9999 19.5713 61.9999 26.8167C61.9999 32.5672 57.8028 36.1632 55.111 37.4032V56.8333C55.111 58.2036 54.5667 59.5177 53.5977 60.4867C52.6288 61.4556 51.3146 61.9999 49.9443 61.9999C48.574 61.9999 47.2599 61.4556 46.291 60.4867C45.322 59.5177 44.7777 58.2036 44.7777 56.8333V43.0555H43.0554V56.8333C43.0554 58.0406 42.6421 59.1514 41.9463 60.0314C41.4633 60.6455 40.8471 61.1418 40.1442 61.4828C39.4413 61.8238 38.67 62.0007 37.8888 61.9999ZM51.6666 35.197L53.6695 34.2739C55.6397 33.3663 58.5554 30.7485 58.5554 26.8167C58.5554 24.4159 57.5135 22.9623 56.3028 22.0134C55.7149 21.5558 55.0611 21.19 54.3636 20.9284C54.0615 20.8104 53.7482 20.7238 53.4284 20.6701C53.4043 20.6666 53.4008 20.6666 53.4146 20.6666H24.111C23.6542 20.6666 23.2162 20.8481 22.8932 21.171C22.5702 21.494 22.3888 21.9321 22.3888 22.3888C22.3888 22.8456 22.5702 23.2837 22.8932 23.6066C23.2162 23.9296 23.6542 24.1111 24.111 24.1111H36.1666V56.8333C36.1666 57.29 36.348 57.7281 36.671 58.0511C36.994 58.3741 37.432 58.5555 37.8888 58.5555C38.3455 58.5555 38.7836 58.3741 39.1066 58.0511C39.4296 57.7281 39.611 57.29 39.611 56.8333V39.6111H48.2221V56.8333C48.2221 57.29 48.4036 57.7281 48.7265 58.0511C49.0495 58.3741 49.4876 58.5555 49.9443 58.5555C50.4011 58.5555 50.8392 58.3741 51.1621 58.0511C51.4851 57.7281 51.6666 57.29 51.6666 56.8333V35.197Z" fill="white"/>
</g>
</svg>
